<svg width="69" height="69" viewBox="0 0 69 69" fill="none" xmlns="http://www.w3.org/2000/svg">
<path d="M22.6406 42.0469H65.7656V46.3594H22.6406V42.0469Z" fill="#3DC285"/>
<path d="M35.5781 9.70312H52.8281C56.2594 9.70313 59.5501 11.0662 61.9763 13.4924C64.4026 15.9187 65.7656 19.2094 65.7656 22.6406V24.7969C65.7656 25.3687 65.5385 25.9172 65.1341 26.3216C64.7297 26.7259 64.1812 26.9531 63.6094 26.9531H24.7969C24.225 26.9531 23.6766 26.7259 23.2722 26.3216C22.8678 25.9172 22.6406 25.3687 22.6406 24.7969V22.6406C22.6406 19.2094 24.0037 15.9187 26.4299 13.4924C28.8562 11.0662 32.1469 9.70313 35.5781 9.70312Z" fill="#D49073"/>
<path d="M24.7969 59.2969H63.6094C64.8002 59.2969 65.7656 58.3315 65.7656 57.1406V52.8281C65.7656 51.6373 64.8002 50.6719 63.6094 50.6719H24.7969C23.606 50.6719 22.6406 51.6373 22.6406 52.8281V57.1406C22.6406 58.3315 23.606 59.2969 24.7969 59.2969Z" fill="#D49073"/>
<path d="M24.7969 42.0469H63.6094C64.8002 42.0469 65.7656 41.0815 65.7656 39.8906V37.7344C65.7656 36.5435 64.8002 35.5781 63.6094 35.5781H24.7969C23.606 35.5781 22.6406 36.5435 22.6406 37.7344V39.8906C22.6406 41.0815 23.606 42.0469 24.7969 42.0469Z" fill="#B37A60"/>
<path d="M24.7969 26.9531H63.6094C64.1812 26.9531 64.7297 27.1803 65.1341 27.5847C65.5385 27.9891 65.7656 28.5375 65.7656 29.1094C65.7656 29.6812 65.5385 30.2297 65.1341 30.6341C64.7297 31.0384 64.1812 31.2656 63.6094 31.2656H24.7969C24.225 31.2656 23.6766 31.0384 23.2722 30.6341C22.8678 30.2297 22.6406 29.6812 22.6406 29.1094C22.6406 28.5375 22.8678 27.9891 23.2722 27.5847C23.6766 27.1803 24.225 26.9531 24.7969 26.9531Z" fill="#EB423F"/>
<path d="M24.7969 46.3594H63.6094C64.1812 46.3594 64.7297 46.5865 65.1341 46.9909C65.5385 47.3953 65.7656 47.9438 65.7656 48.5156C65.7656 49.0875 65.5385 49.636 65.1341 50.0403C64.7297 50.4447 64.1812 50.6719 63.6094 50.6719H24.7969C24.225 50.6719 23.6766 50.4447 23.2722 50.0403C22.8678 49.636 22.6406 49.0875 22.6406 48.5156C22.6406 47.9438 22.8678 47.3953 23.2722 46.9909C23.6766 46.5865 24.225 46.3594 24.7969 46.3594Z" fill="#EBA72E"/>
<path d="M22.6406 31.2656H65.7656V35.5781H22.6406V31.2656Z" fill="#FFB632"/>
<path d="M65.7656 35.5781H48.5156L57.1406 42.0469L65.7656 35.5781Z" fill="#FFB632"/>
<path d="M3.23438 20.4844H9.70312V33.4219H3.23438V20.4844Z" fill="#EBA72E"/>
<path d="M9.70312 14.0156H16.1719V33.4219H9.70312V14.0156Z" fill="#FFB632"/>
<path d="M22.6406 14.0156H29.1094V33.4219H22.6406V14.0156Z" fill="#FFB632"/>
<path d="M16.1719 20.4844H22.6406V33.4219H16.1719V20.4844Z" fill="#EBA72E"/>
<path d="M29.1094 20.4844H35.5781V33.4219H29.1094V20.4844Z" fill="#EBA72E"/>
<path d="M32.3438 59.2969H6.46875L3.23438 33.4219H35.5781L32.3438 59.2969Z" fill="#ED6F6D"/>
<path d="M25.875 33.4219C25.875 35.1375 25.1935 36.7828 23.9803 37.996C22.7672 39.2091 21.1219 39.8906 19.4062 39.8906C17.6906 39.8906 16.0453 39.2091 14.8322 37.996C13.619 36.7828 12.9375 35.1375 12.9375 33.4219H25.875Z" fill="#EB423F"/>
<path d="M34.5 59.2969C39.2635 59.2969 43.125 55.4353 43.125 50.6719C43.125 45.9084 39.2635 42.0469 34.5 42.0469C29.7365 42.0469 25.875 45.9084 25.875 50.6719C25.875 55.4353 29.7365 59.2969 34.5 59.2969Z" fill="#EB423F"/>
<path d="M52.8281 8.625H35.5781C33.6893 8.62653 31.8201 9.00927 30.0827 9.75028C28.3452 10.4913 26.7752 11.5753 25.4667 12.9375H22.6406C22.3547 12.9375 22.0805 13.0511 21.8783 13.2533C21.6761 13.4555 21.5625 13.7297 21.5625 14.0156V19.4062H17.25V14.0156C17.25 13.7297 17.1364 13.4555 16.9342 13.2533C16.732 13.0511 16.4578 12.9375 16.1719 12.9375H9.70312C9.41719 12.9375 9.14296 13.0511 8.94078 13.2533C8.73859 13.4555 8.625 13.7297 8.625 14.0156V19.4062H3.23438C2.94844 19.4062 2.67421 19.5198 2.47203 19.722C2.26984 19.9242 2.15625 20.1984 2.15625 20.4844V33.4219H2.15706C2.15678 33.4665 2.15925 33.5112 2.16447 33.5556L5.39885 59.4306C5.43143 59.6913 5.55815 59.9312 5.75517 60.1051C5.95219 60.2791 6.20595 60.375 6.46875 60.375H63.6094C64.4669 60.374 65.289 60.0329 65.8953 59.4266C66.5017 58.8202 66.8428 57.9981 66.8438 57.1406V52.8281C66.8443 52.033 66.5507 51.2657 66.0194 50.674C66.4453 50.1982 66.7208 49.6071 66.8112 48.975C66.9017 48.3429 66.803 47.6981 66.5276 47.122C66.628 47.022 66.7076 46.9031 66.7618 46.7723C66.8161 46.6414 66.8439 46.5011 66.8438 46.3594V42.0469C66.8439 41.9052 66.8161 41.7649 66.7618 41.634C66.7076 41.5031 66.628 41.3842 66.5276 41.2842C66.7362 40.8493 66.8443 40.373 66.8438 39.8906V37.7344C66.8433 37.2522 66.7351 36.7762 66.527 36.3413C66.6276 36.2413 66.7073 36.1223 66.7617 35.9914C66.816 35.8604 66.8439 35.7199 66.8438 35.5781V31.2656C66.8439 31.1243 66.8162 30.9844 66.7622 30.8538C66.7082 30.7232 66.629 30.6045 66.5291 30.5046C66.8037 29.9282 66.9016 29.2833 66.8105 28.6514C66.7193 28.0194 66.4432 27.4285 66.017 26.9531C66.5496 26.3613 66.8442 25.5931 66.8438 24.7969V22.6406C66.8395 18.9247 65.3615 15.3623 62.734 12.7347C60.1065 10.1072 56.544 8.62921 52.8281 8.625ZM28.0312 15.0938V32.3438H23.7188V15.0938H28.0312ZM30.1875 21.5625H34.5V32.3438H30.1875V21.5625ZM36.6562 28.0312H63.6094C63.8953 28.0312 64.1695 28.1448 64.3717 28.347C64.5739 28.5492 64.6875 28.8234 64.6875 29.1094C64.6875 29.3953 64.5739 29.6695 64.3717 29.8717C64.1695 30.0739 63.8953 30.1875 63.6094 30.1875H36.6562V28.0312ZM44.1421 49.5938C44.0603 48.8586 43.8948 48.1351 43.6488 47.4375H63.6094C63.8953 47.4375 64.1695 47.5511 64.3717 47.7533C64.5739 47.9555 64.6875 48.2297 64.6875 48.5156C64.6875 48.8016 64.5739 49.0758 64.3717 49.278C64.1695 49.4802 63.8953 49.5938 63.6094 49.5938H44.1421ZM34.5 58.2188C33.0066 58.2193 31.5467 57.7769 30.3048 56.9475C29.0629 56.1182 28.0949 54.9391 27.5232 53.5595C26.9514 52.18 26.8017 50.6618 27.0929 49.1971C27.3842 47.7324 28.1032 46.387 29.1592 45.3311C30.2151 44.2751 31.5606 43.556 33.0252 43.2648C34.4899 42.9736 36.0081 43.1233 37.3877 43.695C38.7672 44.2668 39.9463 45.2348 40.7756 46.4767C41.605 47.7186 42.0474 49.1785 42.0469 50.6719C42.0446 52.6727 41.2488 54.591 39.834 56.0058C38.4191 57.4207 36.5009 58.2165 34.5 58.2188ZM36.2603 36.6562H48.1562L53.9062 40.9688H35.7212L36.2603 36.6562ZM60.6908 44.9655C60.7941 45.0689 60.8998 45.1745 61.0087 45.2812H53.2729C53.3819 45.1745 53.4877 45.0687 53.591 44.9652C54.6188 43.9371 55.431 43.125 57.1406 43.125C58.8503 43.125 59.6625 43.9371 60.6908 44.9655ZM42.5691 45.2812C42.0431 44.4964 41.4051 43.7926 40.6754 43.1924C41.8748 43.4048 42.5831 44.1088 43.4394 44.9656C43.5428 45.069 43.6484 45.1747 43.7573 45.2814L42.5691 45.2812ZM44.9641 43.4408C44.8609 43.3374 44.7551 43.2317 44.6464 43.125H52.3834C52.2746 43.2316 52.169 43.3373 52.0658 43.4405C51.0374 44.469 50.2249 45.2812 48.5143 45.2812C46.8037 45.2812 45.9924 44.4692 44.9641 43.4408ZM51.75 36.6562H62.5312L57.1406 40.6992L51.75 36.6562ZM64.6875 45.1509C63.66 44.8827 63.0001 44.2254 62.2155 43.4408C62.1121 43.3374 62.0065 43.2317 61.8976 43.125H63.6094C63.9767 43.1251 64.3413 43.0624 64.6875 42.9396V45.1509ZM63.6094 40.9688H60.375L64.6875 37.7344V39.8906C64.6872 40.1765 64.5735 40.4505 64.3714 40.6526C64.1693 40.8547 63.8952 40.9684 63.6094 40.9688ZM64.6875 32.3438V34.5H36.5298L36.6479 33.5556C36.6532 33.5112 36.6557 33.4666 36.6554 33.4219H36.6562V32.3438H64.6875ZM24.6891 34.5C24.441 35.7179 23.7797 36.8126 22.8171 37.5989C21.8545 38.3851 20.6498 38.8146 19.4069 38.8146C18.164 38.8146 16.9593 38.3851 15.9968 37.5989C15.0342 36.8126 14.3729 35.7179 14.1248 34.5H24.6891ZM21.5625 21.5625V32.3438H17.25V21.5625H21.5625ZM15.0938 15.0938V32.3438H10.7812V15.0938H15.0938ZM8.625 21.5625V32.3438H4.3125V21.5625H8.625ZM7.42046 58.2188L4.45562 34.5H11.9377C12.1966 36.2961 13.0942 37.9388 14.4659 39.1269C15.8376 40.315 17.5915 40.969 19.4062 40.969C21.221 40.969 22.9749 40.315 24.3466 39.1269C25.7183 37.9388 26.6159 36.2961 26.8748 34.5H34.3569L33.5422 41.0166C31.6262 41.2056 29.8098 41.9607 28.3244 43.1856C26.8391 44.4106 25.752 46.05 25.2016 47.895C24.6512 49.7399 24.6625 51.707 25.234 53.5455C25.8055 55.3841 26.9113 57.0109 28.4106 58.2188H7.42046ZM64.6875 57.1406C64.6872 57.4265 64.5735 57.7005 64.3714 57.9026C64.1693 58.1047 63.8952 58.2184 63.6094 58.2188H40.5894C42.5798 56.615 43.8565 54.2902 44.1418 51.75H63.6094C63.8952 51.7503 64.1693 51.864 64.3714 52.0661C64.5735 52.2682 64.6872 52.5423 64.6875 52.8281V57.1406ZM64.6875 24.7969C64.6872 25.0827 64.5735 25.3568 64.3714 25.5589C64.1693 25.761 63.8952 25.8747 63.6094 25.875H36.6562V20.4844C36.6562 20.1984 36.5427 19.9242 36.3405 19.722C36.1383 19.5198 35.8641 19.4062 35.5781 19.4062H30.1875V14.0156C30.1875 13.7297 30.0739 13.4555 29.8717 13.2533C29.6695 13.0511 29.3953 12.9375 29.1094 12.9375H28.764C30.76 11.5359 33.1392 10.7831 35.5781 10.7812H52.8281C55.9723 10.7848 58.9867 12.0354 61.21 14.2587C63.4333 16.482 64.6839 19.4964 64.6875 22.6406V24.7969Z" fill="black"/>
<path d="M34.5 12.9375H36.6562V15.0938H34.5V12.9375Z" fill="black"/>
<path d="M38.8125 15.0938H40.9688V17.25H38.8125V15.0938Z" fill="black"/>
<path d="M43.125 12.9375H45.2812V15.0938H43.125V12.9375Z" fill="black"/>
<path d="M47.4375 15.0938H49.5938V17.25H47.4375V15.0938Z" fill="black"/>
<path d="M51.75 12.9375H53.9062V15.0938H51.75V12.9375Z" fill="black"/>
<path d="M38.4967 46.6751C38.3966 46.575 38.2778 46.4956 38.1469 46.4414C38.0161 46.3872 37.8759 46.3593 37.7344 46.3593C37.5928 46.3593 37.4526 46.3872 37.3218 46.4414C37.191 46.4956 37.0721 46.575 36.972 46.6751L34.5 49.1471L32.028 46.6751C31.8258 46.4729 31.5515 46.3593 31.2656 46.3593C30.9796 46.3593 30.7054 46.4729 30.5032 46.6751C30.301 46.8773 30.1874 47.1515 30.1874 47.4375C30.1874 47.7234 30.301 47.9977 30.5032 48.1999L32.9752 50.6719L30.5032 53.1439C30.301 53.3461 30.1874 53.6203 30.1874 53.9062C30.1874 54.1922 30.301 54.4664 30.5032 54.6686C30.7054 54.8708 30.9796 54.9844 31.2656 54.9844C31.5515 54.9844 31.8258 54.8708 32.028 54.6686L34.5 52.1966L36.972 54.6686C37.1742 54.8708 37.4484 54.9844 37.7344 54.9844C38.0203 54.9844 38.2945 54.8708 38.4967 54.6686C38.6989 54.4664 38.8125 54.1922 38.8125 53.9062C38.8125 53.6203 38.6989 53.3461 38.4967 53.1439L36.0247 50.6719L38.4967 48.1999C38.5968 48.0997 38.6763 47.9809 38.7304 47.8501C38.7846 47.7193 38.8125 47.5791 38.8125 47.4375C38.8125 47.2959 38.7846 47.1557 38.7304 47.0249C38.6763 46.8941 38.5968 46.7752 38.4967 46.6751Z" fill="black"/>
</svg>
