<svg width="25" height="24" viewBox="0 0 25 24" fill="none" xmlns="http://www.w3.org/2000/svg">
<g clip-path="url(#clip0)">
<path d="M19.9731 3.50165C20.8244 3.50165 21.5144 4.2062 21.5144 5.07542C21.5144 5.94464 20.8244 6.64919 19.9731 6.64919H5.08817C4.23708 6.64919 3.54684 5.94464 3.54684 5.07542C3.54684 4.2062 4.23708 3.50165 5.08817 3.50165H19.9731Z" fill="#00ACEA"/>
<path d="M19.9399 6.67181V20.9929C19.9399 22.4031 18.954 23.4098 17.7381 23.4098H7.32317C6.10718 23.4098 5.12128 22.4031 5.12128 20.9929V6.6492H19.9399V6.67181Z" fill="#00EFD1"/>
<path d="M15.7785 8.69522C15.4745 8.69522 15.228 8.94683 15.228 9.25728V19.8802C15.228 20.1905 15.4745 20.4423 15.7785 20.4423C16.0823 20.4423 16.329 20.1905 16.329 19.8802V9.25728C16.329 8.94683 16.0823 8.69522 15.7785 8.69522Z" fill="#083863"/>
<path d="M9.28299 8.69522C8.97894 8.69522 8.73251 8.94683 8.73251 9.25728V19.8802C8.73251 20.1905 8.97894 20.4423 9.28299 20.4423C9.58682 20.4423 9.83346 20.1905 9.83346 19.8802V9.25728C9.83346 8.94683 9.58682 8.69522 9.28299 8.69522Z" fill="#083863"/>
<path d="M4.54888 7.14494V20.9929C4.54888 21.8114 4.8426 22.5798 5.35631 23.1316C5.86721 23.6846 6.57852 23.9986 7.32316 23.9999H17.738C18.4827 23.9986 19.194 23.6846 19.7049 23.1316C20.2186 22.5798 20.5125 21.8114 20.5125 20.9929V7.1456C20.8705 7.0435 21.1976 6.85074 21.4636 6.58529C22.0588 5.96901 22.2342 5.04819 21.9089 4.2488C21.5836 3.4494 20.8209 2.92686 19.973 2.92269H17.1546V2.22012C17.1579 1.62929 16.9291 1.06197 16.5192 0.644594C16.1096 0.227441 15.5533 -0.0048479 14.9747 -1.77028e-05H10.0865C9.50784 -0.0048479 8.95157 0.227441 8.54194 0.644594C8.1321 1.06197 7.90331 1.62929 7.90675 2.22012V2.92269H5.08817C3.93132 2.93498 2.99659 3.89005 2.98541 5.07125C2.991 6.04278 3.6305 6.89113 4.54888 7.14494ZM17.738 22.8758H7.32316C6.38177 22.8758 5.64982 22.0503 5.64982 20.9929V7.19434H19.4116V20.9929C19.4116 22.0503 18.6794 22.8758 17.738 22.8758ZM9.00769 2.22012C9.00403 1.92745 9.11671 1.64576 9.31991 1.43916C9.52332 1.23256 9.79985 1.11905 10.0865 1.1241H14.9747C15.2613 1.11905 15.5379 1.23256 15.7413 1.43916C15.9445 1.64554 16.0571 1.92745 16.0537 2.22012V2.92269H9.00769V2.22012ZM4.38718 4.35199C4.57189 4.15922 4.82411 4.04944 5.08817 4.04681H19.973C20.5215 4.05142 20.9639 4.50699 20.9639 5.06708C20.9636 5.33449 20.8589 5.59071 20.6729 5.77909C20.4867 5.96747 20.2349 6.0722 19.973 6.07022H5.08817C4.542 6.07154 4.09839 5.62035 4.09732 5.0629C4.09689 4.79571 4.20118 4.53971 4.38718 4.35199Z" fill="#083863"/>
<path d="M12.5307 8.69522C12.2267 8.69522 11.9803 8.94683 11.9803 9.25728V19.8802C11.9803 20.1905 12.2267 20.4423 12.5307 20.4423C12.8346 20.4423 13.0812 20.1905 13.0812 19.8802V9.25728C13.0812 8.94683 12.8346 8.69522 12.5307 8.69522Z" fill="#083863"/>
</g>
<defs>
<clipPath id="clip0">
<rect width="23.5052" height="24" fill="white" transform="translate(0.783508)"/>
</clipPath>
</defs>
</svg>
